<svg width="17" height="17" viewBox="0 0 17 17" fill="none" xmlns="http://www.w3.org/2000/svg">
<path d="M12.4934 12.0938C11.9717 12.6156 10.9741 13.6131 10.136 14.4512C9.35496 15.2323 8.08946 15.2323 7.30841 14.4513C6.48602 13.6289 5.50527 12.6481 4.95095 12.0938C2.86816 10.011 2.86816 6.63415 4.95095 4.55136C7.03375 2.46856 10.4106 2.46856 12.4934 4.55136C14.5762 6.63415 14.5762 10.011 12.4934 12.0938Z" stroke="#292524" stroke-width="1.5" stroke-linecap="round" stroke-linejoin="round"/>
<path d="M10.7222 8.32259C10.7222 9.42716 9.82676 10.3226 8.72219 10.3226C7.61762 10.3226 6.72219 9.42716 6.72219 8.32259C6.72219 7.21802 7.61762 6.32259 8.72219 6.32259C9.82676 6.32259 10.7222 7.21802 10.7222 8.32259Z" stroke="#292524" stroke-width="1.5" stroke-linecap="round" stroke-linejoin="round"/>
</svg>
