<svg width="17" height="17" viewBox="0 0 17 17" fill="none" xmlns="http://www.w3.org/2000/svg">
<path d="M7.29369 1.6532C7.59306 0.731941 8.8964 0.731938 9.19578 1.6532L10.3065 5.07111C10.4403 5.4831 10.8243 5.76204 11.2575 5.76206L14.8513 5.7622C15.82 5.76223 16.2228 7.00178 15.4391 7.57119L12.5317 9.68371C12.1812 9.93835 12.0346 10.3897 12.1684 10.8017L13.2789 14.2197C13.5782 15.141 12.5238 15.9071 11.7401 15.3377L8.83249 13.2254C8.48201 12.9708 8.00745 12.9708 7.65698 13.2254L4.74941 15.3377C3.96571 15.9071 2.91128 15.141 3.21059 14.2197L4.32102 10.8017C4.45487 10.3897 4.30822 9.93835 3.95777 9.68371L1.05037 7.57119C0.266704 7.00178 0.669456 5.76223 1.63814 5.7622L5.23199 5.76206C5.66519 5.76204 6.04912 5.4831 6.183 5.07111L7.29369 1.6532Z" stroke="#292524"/>
</svg>
