<svg width="17" height="17" viewBox="0 0 17 17" fill="none" xmlns="http://www.w3.org/2000/svg">
<path d="M6.16132 8.4704L7.82798 10.1371L11.1613 6.80373M5.19026 2.3846C5.78821 2.33689 6.35586 2.10176 6.81241 1.71269C7.87782 0.804755 9.44481 0.804755 10.5102 1.71269C10.9668 2.10176 11.5344 2.33689 12.1324 2.3846C13.5277 2.49595 14.6358 3.60399 14.7471 4.99935C14.7948 5.59729 15.03 6.16494 15.419 6.6215C16.327 7.6869 16.327 9.25389 15.419 10.3193C15.03 10.7759 14.7948 11.3435 14.7471 11.9414C14.6358 13.3368 13.5277 14.4448 12.1324 14.5562C11.5344 14.6039 10.9668 14.839 10.5102 15.2281C9.44481 16.136 7.87782 16.136 6.81241 15.2281C6.35586 14.839 5.78821 14.6039 5.19026 14.5562C3.7949 14.4448 2.68687 13.3368 2.57552 11.9414C2.52781 11.3435 2.29268 10.7759 1.90361 10.3193C0.995673 9.25389 0.995673 7.6869 1.90361 6.6215C2.29268 6.16494 2.52781 5.59729 2.57552 4.99935C2.68687 3.60399 3.7949 2.49595 5.19026 2.3846Z" stroke="#292524" stroke-width="1.25" stroke-linecap="round" stroke-linejoin="round"/>
</svg>
