<svg width="20" height="21" viewBox="0 0 20 21" fill="none" xmlns="http://www.w3.org/2000/svg">
<path d="M14.1667 17.0548H18.3333V15.3882C18.3333 14.0075 17.214 12.8882 15.8333 12.8882C15.037 12.8882 14.3276 13.2605 13.8698 13.8406M14.1667 17.0548H5.83333M14.1667 17.0548V15.3882C14.1667 14.8413 14.0613 14.319 13.8698 13.8406M5.83333 17.0548H1.66667V15.3882C1.66667 14.0075 2.78596 12.8882 4.16667 12.8882C4.96301 12.8882 5.67238 13.2605 6.13021 13.8406M5.83333 17.0548V15.3882C5.83333 14.8413 5.93869 14.319 6.13021 13.8406M6.13021 13.8406C6.74459 12.3057 8.24568 11.2215 10 11.2215C11.7543 11.2215 13.2554 12.3057 13.8698 13.8406M12.5 6.2215C12.5 7.60221 11.3807 8.7215 10 8.7215C8.61929 8.7215 7.5 7.60221 7.5 6.2215C7.5 4.84078 8.61929 3.7215 10 3.7215C11.3807 3.7215 12.5 4.84078 12.5 6.2215ZM17.5 8.7215C17.5 9.64197 16.7538 10.3882 15.8333 10.3882C14.9129 10.3882 14.1667 9.64197 14.1667 8.7215C14.1667 7.80102 14.9129 7.05483 15.8333 7.05483C16.7538 7.05483 17.5 7.80102 17.5 8.7215ZM5.83333 8.7215C5.83333 9.64197 5.08714 10.3882 4.16667 10.3882C3.24619 10.3882 2.5 9.64197 2.5 8.7215C2.5 7.80102 3.24619 7.05483 4.16667 7.05483C5.08714 7.05483 5.83333 7.80102 5.83333 8.7215Z" stroke="#292524" stroke-width="1.52" stroke-linecap="round" stroke-linejoin="round"/>
</svg>
